<svg xmlns="http://www.w3.org/2000/svg"  viewBox="0 0 8.467 8.467" width="48px" height="48px"><path style="line-height:normal;font-variant-ligatures:normal;font-variant-position:normal;font-variant-caps:normal;font-variant-numeric:normal;font-variant-alternates:normal;font-feature-settings:normal;text-indent:0;text-align:start;text-decoration-line:none;text-decoration-style:solid;text-decoration-color:#000;text-transform:none;text-orientation:mixed;white-space:normal;shape-padding:0;isolation:auto;mix-blend-mode:normal;solid-color:#000;solid-opacity:1" fill="#549ad4" d="m 3.1760335,2.1167774 c -0.5817401,0 -1.05885,0.4771433 -1.05885,1.058924 V 6.879093 c 0,0.5817807 0.4771099,1.0584072 1.05885,1.0584072 H 6.8791667 C 7.4609068,7.9375002 7.9375,7.4608737 7.9375,6.879093 V 3.1757014 c 0,-0.5817807 -0.4765932,-1.058924 -1.0583333,-1.058924 z" color="#000" font-family="sans-serif" font-weight="400" overflow="visible"/><path d="m 3.1760335,2.1167774 c -0.58174,0 -1.05885,0.4771433 -1.05885,1.0589239 V 6.615008 H 5.55625 c 0.5817402,0 1.0583333,-0.4766265 1.0583333,-1.0584072 V 2.1167774 Z" style="line-height:normal;font-variant-ligatures:normal;font-variant-position:normal;font-variant-caps:normal;font-variant-numeric:normal;font-variant-alternates:normal;font-feature-settings:normal;text-indent:0;text-align:start;text-decoration-line:none;text-decoration-style:solid;text-decoration-color:#000;text-transform:none;text-orientation:mixed;white-space:normal;shape-padding:0;isolation:auto;mix-blend-mode:normal;solid-color:#000;solid-opacity:1" fill="#3588cb" color="#000" font-family="sans-serif" font-weight="400" overflow="visible"/><path d="m 1.5880168,0.52916655 c -0.5817401,0 -1.05885008,0.47714335 -1.05885008,1.05892395 v 3.7033917 c 0,0.5817808 0.47710998,1.0584072 1.05885008,1.0584072 h 3.7031331 c 0.5817402,0 1.0583334,-0.4766264 1.0583334,-1.0584072 V 1.5880905 c 0,-0.5817806 -0.4765932,-1.05892395 -1.0583334,-1.05892395 z" style="line-height:normal;font-variant-ligatures:normal;font-variant-position:normal;font-variant-caps:normal;font-variant-numeric:normal;font-variant-alternates:normal;font-feature-settings:normal;text-indent:0;text-align:start;text-decoration-line:none;text-decoration-style:solid;text-decoration-color:#000;text-transform:none;text-orientation:mixed;white-space:normal;shape-padding:0;isolation:auto;mix-blend-mode:normal;solid-color:#000;solid-opacity:1" fill="#e4eff8" color="#000" font-family="sans-serif" font-weight="400" overflow="visible"/><path d="m 5.808431,0.67076985 c 0.00628,0.0403905 0.012402,0.0807914 0.012402,0.1229985 V 5.0273972 c 0,0.4397681 -0.3540125,0.7938054 -0.79375,0.7938054 H 0.79375005 c -0.0422041,0 -0.0826022,-0.00612 -0.12298992,-0.012402 0.18256716,0.3208503 0.52400767,0.54109 0.91725667,0.54109 h 3.7031331 c 0.5817402,0 1.0583334,-0.4766264 1.0583334,-1.0584072 v -3.703393 c 0,-0.3932764 -0.2202244,-0.73474076 -0.5410523,-0.91732055 z" style="line-height:normal;font-variant-ligatures:normal;font-variant-position:normal;font-variant-caps:normal;font-variant-numeric:normal;font-variant-alternates:normal;font-feature-settings:normal;text-indent:0;text-align:start;text-decoration-line:none;text-decoration-style:solid;text-decoration-color:#000;text-transform:none;text-orientation:mixed;white-space:normal;shape-padding:0;isolation:auto;mix-blend-mode:normal;solid-color:#000;solid-opacity:1" fill="#c4dcf0" color="#000" font-family="sans-serif" font-weight="400" overflow="visible"/><path d="m 7.3122152,2.2123854 c 0.060494,0.1329735 0.096118,0.2793019 0.096118,0.4341123 v 3.7033917 c 0,0.5817808 -0.4765932,1.0584072 -1.0583333,1.0584072 H 2.6468668 c -0.1547995,0 -0.3011178,-0.035626 -0.4340819,-0.096125 C 2.3795464,7.6793304 2.7486827,7.9375 3.1760335,7.9375 H 6.8791666 C 7.4609068,7.9375002 7.9375,7.4608738 7.9375,6.879093 V 3.1757013 c 0,-0.4273806 -0.2581516,-0.7965427 -0.6252848,-0.9633159 z" style="line-height:normal;font-variant-ligatures:normal;font-variant-position:normal;font-variant-caps:normal;font-variant-numeric:normal;font-variant-alternates:normal;font-feature-settings:normal;text-indent:0;text-align:start;text-decoration-line:none;text-decoration-style:solid;text-decoration-color:#000;text-transform:none;text-orientation:mixed;white-space:normal;shape-padding:0;isolation:auto;mix-blend-mode:normal;solid-color:#000;solid-opacity:1" fill="#3588cb" color="#000" font-family="sans-serif" font-weight="400" overflow="visible"/></svg>