<?xml version="1.0" encoding="iso-8859-1"?>
<!-- Generator: Adobe Illustrator 27.4.0, SVG Export Plug-In . SVG Version: 6.00 Build 0)  -->
<svg version="1.1" baseProfile="basic" xmlns="http://www.w3.org/2000/svg" xmlns:xlink="http://www.w3.org/1999/xlink" x="0px"
	 y="0px" viewBox="0 0 120 120" xml:space="preserve">
<g id="&#x421;&#x43B;&#x43E;&#x439;_1">
	<polygon style="opacity:0.35;" points="24,108 24,16 70,16 96,40 96,108 	"/>
	<polygon style="fill:#FF1200;" points="24,104 24,12 70,12 96,36 96,104 	"/>
	<polygon id="XMLID_00000012468190633053324910000000895593177209130643_" style="opacity:0.35;" points="70,16 70,43 96,36 	"/>
	<polygon style="fill:#FFA6A3;" points="70,12 70,36 96,36 	"/>
	<g style="opacity:0.35;">
		<path d="M32,58.308h6.629c6.175,0,9.791,3.074,9.791,7.895c0,4.548-3.373,8.226-9.492,8.226h-2.017v6.356H32V58.308z
			 M39.139,70.059c2.532,0,4.31-1.327,4.31-3.675c0-2.35-1.779-3.587-4.34-3.587h-2.198v7.262H39.139z"/>
		<path d="M70.545,69.546c0,6.778-5.002,11.238-12.232,11.238h-6.629V58.308h6.629C65.634,58.308,70.545,62.798,70.545,69.546z
			 M58.524,76.325c4.188,0,7.048-2.439,7.048-6.749c0-4.367-2.86-6.778-7.048-6.778h-1.928v13.527H58.524z"/>
		<path d="M74.232,58.308H88v4.489h-8.856v5.635h8.314v4.217h-8.314v8.135h-4.911V58.308z"/>
	</g>
	<g>
		<path style="fill:#FFFFFF;" d="M32,55.308h6.629c6.175,0,9.791,3.074,9.791,7.895c0,4.548-3.373,8.226-9.492,8.226h-2.017v6.356
			H32V55.308z M39.139,67.059c2.532,0,4.31-1.327,4.31-3.675c0-2.35-1.779-3.587-4.34-3.587h-2.198v7.262H39.139z"/>
		<path style="fill:#FFFFFF;" d="M70.545,66.546c0,6.778-5.002,11.238-12.232,11.238h-6.629V55.308h6.629
			C65.634,55.308,70.545,59.798,70.545,66.546z M58.524,73.325c4.188,0,7.048-2.439,7.048-6.749c0-4.367-2.86-6.778-7.048-6.778
			h-1.928v13.527H58.524z"/>
		<path style="fill:#FFFFFF;" d="M74.232,55.308H88v4.489h-8.856v5.635h8.314v4.217h-8.314v8.135h-4.911V55.308z"/>
	</g>
</g>
<g id="&#x421;&#x43B;&#x43E;&#x439;_2">
</g>
</svg>