<?xml version="1.0" encoding="iso-8859-1"?><!-- Generator: Adobe Illustrator 22.1.0, SVG Export Plug-In . SVG Version: 6.00 Build 0)  --><svg xmlns="http://www.w3.org/2000/svg" xmlns:xlink="http://www.w3.org/1999/xlink" viewBox="0 0 48 48" width="48px" height="48px"><path style="fill:#FF5722;" d="M40,45H8V3h22l10,10V45z"/><path style="fill:#FBE9E7;" d="M38.5,14H29V4.5L38.5,14z"/><path style="fill:#FFFFFF;" d="M16.075,39c-0.398,0-0.697-0.1-0.996-0.2c-1.096-0.6-1.195-1.5-0.996-2.2c0.398-1.2,2.59-2.7,5.478-4  l0,0c1.295-2.4,2.291-4.9,2.889-7c-0.996-1.9-1.45-3.7-1.45-5c0-0.7,0.155-1.3,0.454-1.8c0.398-0.5,0.996-0.8,1.793-0.8  c0.896,0,1.594,0.5,1.893,1.4c0.498,1.2,0.199,3.4-0.498,5.9c0.996,1.7,2.191,3.3,3.486,4.5c1.893-0.4,3.586-0.6,4.682-0.4  C34.701,29.7,35,31,35,31.5c0,2.1-2.191,2.1-2.988,2.1c-1.494,0-2.988-0.6-4.283-1.7l0,0c-2.391,0.6-4.781,1.4-6.674,2.3  c-0.996,1.7-1.992,3.1-2.889,3.9C17.27,38.8,16.573,39,16.075,39z M23.844,27.8c-0.398,1.2-0.996,2.5-1.494,3.7  c1.195-0.4,2.391-0.8,3.586-1.1C25.139,29.6,24.442,28.7,23.844,27.8z"/><polygon style="fill:#FF8A65;" points="40,45 40,29 35,29 35,36 30,36 30,38.7 35.04,45 "/><path style="fill:#455A64;" d="M48,38H32l8,10L48,38z"/><rect x="37" y="31" style="fill:#455A64;" width="6" height="12"/></svg>