<?xml version="1.0" encoding="iso-8859-1"?>
<!-- Generator: Adobe Illustrator 18.0.0, SVG Export Plug-In . SVG Version: 6.00 Build 0)  -->
<!DOCTYPE svg PUBLIC "-//W3C//DTD SVG 1.1//EN" "http://www.w3.org/Graphics/SVG/1.1/DTD/svg11.dtd">
<svg version="1.1" id="Layer_1" xmlns="http://www.w3.org/2000/svg" xmlns:xlink="http://www.w3.org/1999/xlink" x="0px" y="0px"
	 width="48px" height="48px" viewBox="0 0 48 48" style="enable-background:new 0 0 48 48;" xml:space="preserve">
<path style="fill:#0C7238;" d="M40,45H8V3h22l10,10V45z"/>
<path style="fill:#DCEDC8;" d="M38.5,14H29V4.5L38.5,14z"/>
<path style="fill:#43A047;" d="M40,45V29h-5v7h-5v2.7l5.04,6.3H40z"/>
<path style="fill:#455A64;" d="M48,38H32l8,10L48,38z"/>
<path style="fill:#455A64;" d="M37,31h6v12h-6V31z"/>
<path style="fill:#FFFFFF;" d="M17.291,17h3.818l3.098,6.006L27.48,17h3.566l-4.914,8l5.026,8h-3.762l-3.376-6.288L20.659,33h-3.818
	l5.109-8.029L17.291,17z"/>
</svg>